<svg width="74" height="74" viewBox="0 0 74 74" fill="none" xmlns="http://www.w3.org/2000/svg">
<path d="M31.7235 11.9001L5.60764 55.4984C5.06919 56.4309 4.78429 57.4881 4.78127 58.5649C4.77826 59.6416 5.05724 60.7004 5.59046 61.6359C6.12368 62.5713 6.89255 63.3509 7.82057 63.897C8.7486 64.443 9.80344 64.7366 10.8801 64.7484H63.1118C64.1885 64.7366 65.2433 64.443 66.1714 63.897C67.0994 63.3509 67.8683 62.5713 68.4015 61.6359C68.9347 60.7004 69.2137 59.6416 69.2107 58.5649C69.2077 57.4881 68.9228 56.4309 68.3843 55.4984L42.2685 11.9001C41.7188 10.9939 40.9449 10.2447 40.0213 9.72476C39.0978 9.2048 38.0558 8.93164 36.996 8.93164C35.9361 8.93164 34.8942 9.2048 33.9706 9.72476C33.0471 10.2447 32.2731 10.9939 31.7235 11.9001V11.9001Z" stroke="white" stroke-width="4" stroke-linecap="round" stroke-linejoin="round"/>
<path d="M37 28L37 45" stroke="white" stroke-width="4" stroke-linecap="round" stroke-linejoin="round"/>
<path d="M37 52.416H37.0323" stroke="white" stroke-width="4" stroke-linecap="round" stroke-linejoin="round"/>
</svg>
