<svg width="40" height="40" viewBox="0 0 40 40" fill="none" xmlns="http://www.w3.org/2000/svg">
<path d="M3.89079 15.0664L20.0019 5.81081L36.113 15.0664C36.3669 15.1992 36.6624 15.2288 36.9376 15.1489C37.2129 15.0691 37.4466 14.886 37.59 14.6379C37.7334 14.3898 37.7754 14.0958 37.7072 13.8175C37.6391 13.5391 37.466 13.2979 37.2241 13.1441L20.0019 3.24414L2.77968 13.1441C2.64689 13.2136 2.52953 13.3092 2.43466 13.4252C2.33978 13.5412 2.26934 13.6752 2.22759 13.8191C2.18584 13.963 2.17363 14.1139 2.1917 14.2627C2.20977 14.4114 2.25775 14.555 2.33274 14.6847C2.40773 14.8145 2.5082 14.9277 2.62808 15.0176C2.74797 15.1075 2.88481 15.1722 3.03036 15.2079C3.17591 15.2435 3.32717 15.2494 3.47504 15.2251C3.6229 15.2007 3.76432 15.1468 3.89079 15.0664Z" fill="black"/>
<path d="M4.44531 28.8898C4.44531 29.1845 4.56238 29.4671 4.77075 29.6755C4.97912 29.8839 5.26174 30.001 5.55642 30.001H34.4453C34.74 30.001 35.0226 29.8839 35.231 29.6755C35.4394 29.4671 35.5564 29.1845 35.5564 28.8898C35.5564 28.5952 35.4394 28.3125 35.231 28.1042C35.0226 27.8958 34.74 27.7787 34.4453 27.7787H31.112V19.5898H28.8898V27.7787H21.112V19.5898H18.8898V27.7787H11.112V19.5898H8.88976V27.7787H5.55642C5.26174 27.7787 4.97912 27.8958 4.77075 28.1042C4.56238 28.3125 4.44531 28.5952 4.44531 28.8898Z" fill="black"/>
<path d="M5.57812 15.5547H34.467V17.7769H5.57812V15.5547Z" fill="black"/>
<path d="M36.6671 32.2227H3.33377C3.03908 32.2227 2.75647 32.3397 2.54809 32.5481C2.33972 32.7565 2.22266 33.0391 2.22266 33.3338C2.22266 33.6285 2.33972 33.9111 2.54809 34.1194C2.75647 34.3278 3.03908 34.4449 3.33377 34.4449H36.6671C36.9618 34.4449 37.2444 34.3278 37.4528 34.1194C37.6612 33.9111 37.7782 33.6285 37.7782 33.3338C37.7782 33.0391 37.6612 32.7565 37.4528 32.5481C37.2444 32.3397 36.9618 32.2227 36.6671 32.2227Z" fill="black"/>
<path d="M24.6116 12.867H28.1783L20.7227 8.57807C20.5876 8.50006 20.4343 8.45898 20.2783 8.45898C20.1223 8.45898 19.969 8.50006 19.8339 8.57807L12.3672 12.867H15.9339L20.2672 10.3781L24.6116 12.867Z" fill="black"/>
</svg>
