<svg width="10" height="10" viewBox="0 0 10 10" fill="none" xmlns="http://www.w3.org/2000/svg">
<path d="M1.52887 9.27887C1.3867 9.41135 1.19865 9.48347 1.00435 9.48005C0.810046 9.47662 0.624661 9.3979 0.487248 9.26049C0.349835 9.12308 0.271123 8.93769 0.267695 8.74339C0.264267 8.54909 0.33639 8.36104 0.46887 8.21887L8.21887 0.46887C8.36104 0.33639 8.54909 0.264267 8.74339 0.267695C8.93769 0.271123 9.12308 0.349835 9.26049 0.487248C9.3979 0.624661 9.47662 0.810046 9.48005 1.00435C9.48347 1.19865 9.41135 1.3867 9.27887 1.52887L1.52887 9.27887Z" fill="#1E2843"/>
<path d="M9.27918 8.21918C9.41166 8.36135 9.48378 8.5494 9.48035 8.7437C9.47692 8.938 9.39821 9.12339 9.2608 9.2608C9.12339 9.39821 8.938 9.47692 8.7437 9.48035C8.5494 9.48378 8.36135 9.41166 8.21918 9.27918L0.469177 1.52918C0.39549 1.46052 0.336388 1.37771 0.295396 1.28572C0.254404 1.19372 0.232362 1.0944 0.230585 0.9937C0.228809 0.892997 0.247333 0.792968 0.285054 0.699579C0.322775 0.606191 0.37892 0.521357 0.450139 0.450139C0.521357 0.37892 0.606191 0.322775 0.699579 0.285054C0.792968 0.247333 0.892997 0.228809 0.9937 0.230585C1.0944 0.232362 1.19372 0.254404 1.28572 0.295396C1.37771 0.336388 1.46052 0.39549 1.52918 0.469177L9.27918 8.21918Z" fill="#1E2843"/>
</svg>
