<svg width="40" height="40" viewBox="0 0 40 40" fill="none" xmlns="http://www.w3.org/2000/svg">
<path d="M31.6667 5H8.33333C6.49238 5 5 6.49238 5 8.33333V31.6667C5 33.5076 6.49238 35 8.33333 35H31.6667C33.5076 35 35 33.5076 35 31.6667V8.33333C35 6.49238 33.5076 5 31.6667 5Z" stroke="black" stroke-linecap="round" stroke-linejoin="round"/>
<path d="M14.1641 16.668C15.5448 16.668 16.6641 15.5487 16.6641 14.168C16.6641 12.7873 15.5448 11.668 14.1641 11.668C12.7834 11.668 11.6641 12.7873 11.6641 14.168C11.6641 15.5487 12.7834 16.668 14.1641 16.668Z" stroke="black" stroke-linecap="round" stroke-linejoin="round"/>
<path d="M35.0026 25.0013L26.6693 16.668L8.33594 35.0013" stroke="black" stroke-linecap="round" stroke-linejoin="round"/>
</svg>
