<svg width="50" height="15" viewBox="0 0 50 15" fill="none" xmlns="http://www.w3.org/2000/svg">
<path fill-rule="evenodd" clip-rule="evenodd" d="M41.7831 0.943514C42.7709 0.936518 43.7459 1.16693 44.6259 1.61532C45.5058 2.0637 46.2649 2.7169 46.8391 3.51981C47.8102 4.90002 49.0013 4.10883 49.0013 5.79898V7.71868C48.9896 8.1692 48.7999 8.59679 48.4737 8.90817C48.1475 9.21956 47.7113 9.38948 47.2602 9.38087H47.0158C46.8654 9.38369 46.7201 9.32703 46.6113 9.22325C46.5026 9.11946 46.4394 8.97696 46.4354 8.82681V5.61779C46.3961 5.08127 46.2027 4.56746 45.8784 4.13796C45.4138 3.48772 44.7993 2.95869 44.087 2.59557C43.3746 2.23244 42.5852 2.04588 41.7854 2.05164C40.6581 2.05898 39.5637 2.43102 38.6659 3.11199C37.9496 3.64799 37.7163 2.47112 37.9905 2.21244C39.0809 1.38497 40.4137 0.939044 41.7831 0.943514Z" fill="#FF5134"/>
<path d="M12.1658 1.90279C11.9536 2.10482 11.6716 2.21751 11.3784 2.21751C11.0852 2.21751 10.8032 2.10482 10.5909 1.90279C10.4844 1.80128 10.3996 1.67923 10.3417 1.54404C10.2838 1.40885 10.2539 1.26332 10.2539 1.11627C10.2539 0.969218 10.2838 0.823694 10.3417 0.688503C10.3996 0.553313 10.4844 0.431266 10.5909 0.329748C10.7452 0.172832 10.943 0.0656332 11.1588 0.02195C11.3746 -0.0217332 11.5986 9.9074e-05 11.8019 0.0846364C12.0051 0.169174 12.1784 0.312546 12.2994 0.496298C12.4204 0.68005 12.4836 0.89577 12.4808 1.11569C12.4849 1.26142 12.4591 1.40644 12.4049 1.54181C12.3507 1.67718 12.2694 1.80004 12.1658 1.90279Z" fill="#FF5134"/>
<path d="M10.6328 3.69078C10.6354 3.49691 10.715 3.31199 10.854 3.17665C10.993 3.0413 11.1801 2.9666 11.3742 2.96893C11.4701 2.96678 11.5656 2.98393 11.6547 3.01937C11.7439 3.0548 11.8251 3.10778 11.8933 3.17517C11.9611 3.2426 12.0144 3.32307 12.0501 3.4117C12.0858 3.50033 12.1031 3.59527 12.101 3.69078V9.77032C12.1035 9.86588 12.0864 9.96093 12.0506 10.0496C12.0149 10.1383 11.9614 10.2187 11.8933 10.2859C11.8261 10.3556 11.7454 10.4111 11.6562 10.449C11.567 10.4868 11.4711 10.5063 11.3742 10.5063C11.2773 10.5063 11.1813 10.4868 11.0921 10.449C11.003 10.4111 10.9223 10.3556 10.8551 10.2859C10.7844 10.22 10.7281 10.1401 10.6899 10.0514C10.6516 9.96263 10.6322 9.86693 10.6328 9.77032V3.69078Z" fill="#1E2843"/>
<path d="M19.0967 0.797965C19.0945 0.702173 19.1118 0.606938 19.1475 0.518003C19.1832 0.429068 19.2366 0.348275 19.3044 0.280495C19.3722 0.212715 19.453 0.159353 19.542 0.123626C19.631 0.0878988 19.7264 0.0705467 19.8223 0.0726161C19.9207 0.0695731 20.0188 0.0863704 20.1106 0.122005C20.2024 0.157641 20.286 0.211383 20.3566 0.280025C20.4244 0.348122 20.4778 0.429204 20.5135 0.518408C20.5491 0.607611 20.5664 0.703095 20.5642 0.79913V6.74175C20.5644 7.47871 20.3454 8.19913 19.935 8.81157C19.5246 9.42401 18.9413 9.90087 18.2592 10.1816C17.577 10.4624 16.8267 10.5344 16.1034 10.3886C15.3802 10.2427 14.7166 9.8855 14.197 9.36233C13.8466 9.02187 13.5698 8.61336 13.3835 8.16196C13.1972 7.71056 13.1054 7.22584 13.1138 6.73767C13.1134 6.04405 13.307 5.3641 13.6727 4.77449C14.0385 4.18488 14.5619 3.70906 15.184 3.40069C15.806 3.09231 16.5019 2.96363 17.1932 3.02917C17.8846 3.09471 18.5438 3.35185 19.0967 3.77161V0.800296V0.797965ZM19.0967 6.72311C19.0982 6.42744 19.0409 6.13441 18.9279 5.86111C18.8149 5.58781 18.6486 5.33971 18.4387 5.13126C18.2287 4.92281 17.9794 4.75819 17.7051 4.64698C17.4308 4.53578 17.1371 4.48023 16.8411 4.48356C16.5458 4.47803 16.2525 4.53309 15.9794 4.64533C15.7063 4.75757 15.4592 4.9246 15.2533 5.13608C15.0419 5.34442 14.874 5.59264 14.7594 5.86634C14.6448 6.14003 14.5858 6.43373 14.5858 6.73039C14.5858 7.02705 14.6448 7.32075 14.7594 7.59445C14.874 7.86814 15.0419 8.11636 15.2533 8.3247C15.4571 8.54002 15.7034 8.7106 15.9768 8.82555C16.2502 8.9405 16.5445 8.99732 16.8411 8.99237C17.1374 8.99245 17.4309 8.93417 17.7047 8.82087C17.9786 8.70756 18.2273 8.54146 18.4368 8.33205C18.6463 8.12265 18.8124 7.87405 18.9256 7.60047C19.0389 7.32689 19.097 7.0337 19.0967 6.73767V6.72311Z" fill="#1E2843"/>
<path d="M27.7751 9.39212C27.2533 9.91024 26.5898 10.2628 25.8681 10.4055C25.1463 10.5482 24.3984 10.4747 23.7184 10.1942C23.0383 9.91368 22.4564 9.43871 22.0457 8.82894C21.635 8.21916 21.4139 7.50177 21.4102 6.76688C21.4105 6.15563 21.5616 5.55388 21.8501 5.01484C22.1387 4.4758 22.5557 4.01609 23.0645 3.67635C23.5732 3.33661 24.1579 3.12732 24.7669 3.06699C25.3759 3.00666 25.9904 3.09715 26.556 3.33045C27.1216 3.56375 27.621 3.93267 28.0099 4.4046C28.3989 4.87652 28.6654 5.4369 28.7859 6.03618C28.9064 6.63545 28.8772 7.25516 28.7009 7.84049C28.5246 8.42583 28.2066 8.95875 27.7751 9.39212ZM26.7362 5.16529C26.3089 4.74531 25.7328 4.51081 25.1333 4.51276C24.8381 4.50724 24.5448 4.5623 24.2717 4.67454C23.9986 4.78678 23.7515 4.95381 23.5456 5.16529C23.3342 5.37363 23.1663 5.62185 23.0517 5.89555C22.9371 6.16924 22.8781 6.46294 22.8781 6.7596C22.8781 7.05626 22.9371 7.34996 23.0517 7.62366C23.1663 7.89735 23.3342 8.14557 23.5456 8.35391C23.7494 8.56912 23.9958 8.73962 24.2692 8.85456C24.5425 8.96951 24.8368 9.02639 25.1333 9.02158C25.432 9.02564 25.7283 8.96848 26.004 8.85364C26.2797 8.73881 26.5289 8.56873 26.7362 8.35391C27.1553 7.92884 27.3902 7.35619 27.3902 6.7596C27.3902 6.16301 27.1553 5.59036 26.7362 5.16529Z" fill="#1E2843"/>
<path fill-rule="evenodd" clip-rule="evenodd" d="M38.9133 4.18843C38.2167 4.86348 37.8069 5.78035 37.7688 6.749C37.7538 6.89319 37.7462 7.03807 37.7461 7.18304C37.7471 7.31585 37.759 7.44835 37.7817 7.57922C37.9386 9.15518 39.8547 12.4021 41.1257 14.0934C41.534 14.6399 41.926 14.7739 42.4469 14.0858C43.7237 12.3962 45.6282 9.15343 45.7851 7.5798C45.8081 7.44877 45.8202 7.31607 45.8212 7.18304C45.8212 7.03729 45.8136 6.89164 45.7985 6.74667C45.759 5.77759 45.3465 4.86114 44.6471 4.18843C43.8664 3.46828 42.8428 3.06836 41.7802 3.06836C40.7175 3.06836 39.6939 3.46828 38.9133 4.18843ZM41.7842 4.51411C42.2295 4.51461 42.6648 4.64661 43.0351 4.89351C43.4055 5.14041 43.6945 5.49119 43.8659 5.90173C44.0372 6.31227 44.0831 6.76424 43.998 7.2008C43.9128 7.63736 43.7003 8.03901 43.3871 8.35525C43.1798 8.57004 42.9306 8.7401 42.6549 8.85494C42.3793 8.96977 42.0829 9.02694 41.7842 9.02292C41.4878 9.02765 41.1936 8.97073 40.9204 8.85579C40.6472 8.74084 40.4008 8.57039 40.1971 8.35525C39.9857 8.14691 39.8178 7.89869 39.7032 7.625C39.5886 7.35131 39.5296 7.0576 39.5296 6.76094C39.5296 6.46428 39.5886 6.17058 39.7032 5.89689C39.8178 5.6232 39.9857 5.37497 40.1971 5.16663C40.4029 4.95522 40.6499 4.78824 40.9229 4.676C41.1959 4.56377 41.4891 4.50867 41.7842 4.51411Z" fill="#FF5134"/>
<path d="M35.7308 0.797958C35.7286 0.702143 35.7458 0.606872 35.7815 0.517899C35.8172 0.428927 35.8705 0.3481 35.9383 0.280303C36.0062 0.212507 36.087 0.159147 36.1761 0.12345C36.2651 0.0877519 36.3605 0.0704566 36.4564 0.0726088C36.5549 0.0695991 36.6529 0.0864118 36.7447 0.122045C36.8365 0.157678 36.9202 0.211403 36.9907 0.280018C37.0586 0.348114 37.1119 0.429197 37.1476 0.5184C37.1833 0.607603 37.2006 0.703088 37.1984 0.799123V6.74174C37.2045 7.23413 37.1128 7.72285 36.9284 8.17954C36.744 8.63624 36.4707 9.05182 36.1243 9.40219C35.7778 9.75257 35.3652 10.0308 34.9103 10.2206C34.4554 10.4105 33.9673 10.5083 33.4743 10.5083C32.9813 10.5083 32.4932 10.4105 32.0383 10.2206C31.5834 10.0308 31.1708 9.75257 30.8244 9.40219C30.478 9.05182 30.2047 8.63624 30.0203 8.17954C29.8359 7.72285 29.7441 7.23413 29.7503 6.74174C29.7494 6.04817 29.9426 5.36815 30.3079 4.77835C30.6733 4.18854 31.1963 3.7124 31.8181 3.40361C32.4399 3.09482 33.1356 2.96565 33.827 3.03067C34.5183 3.09569 35.1777 3.35231 35.7308 3.7716V0.800289V0.797958ZM35.7308 6.7231C35.7324 6.42743 35.675 6.1344 35.562 5.8611C35.4491 5.58781 35.2828 5.3397 35.0728 5.13125C34.8629 4.9228 34.6135 4.75818 34.3392 4.64698C34.0649 4.53577 33.7712 4.48022 33.4752 4.48355C33.1799 4.47802 32.8867 4.53309 32.6136 4.64533C32.3405 4.75756 32.0934 4.92459 31.8875 5.13607C31.676 5.34441 31.5082 5.59264 31.3936 5.86633C31.279 6.14002 31.22 6.43372 31.22 6.73038C31.22 7.02704 31.279 7.32075 31.3936 7.59444C31.5082 7.86813 31.676 8.11635 31.8875 8.32469C32.0912 8.54002 32.3376 8.71059 32.611 8.82554C32.8843 8.9405 33.1787 8.99731 33.4752 8.99236C33.7716 8.99244 34.0651 8.93416 34.3389 8.82086C34.6127 8.70755 34.8615 8.54145 35.071 8.33204C35.2804 8.12264 35.4465 7.87404 35.5598 7.60046C35.673 7.32688 35.7311 7.03369 35.7308 6.73766V6.7231Z" fill="#1E2843"/>
<path d="M8.48674 3.33172C8.58897 3.16369 8.75217 3.04155 8.94234 2.99076C9.1325 2.93996 9.33496 2.96443 9.50751 3.05906C9.5913 3.10302 9.66498 3.16397 9.72384 3.23801C9.7827 3.31205 9.82544 3.39754 9.84932 3.48902C9.89151 3.67694 9.8591 3.87388 9.75891 4.03842L6.49479 10.1244C6.44836 10.2107 6.38437 10.2864 6.30692 10.3466C6.22948 10.4068 6.14028 10.4502 6.04507 10.4739C5.95179 10.5027 5.85364 10.5124 5.75651 10.5024C5.65939 10.4924 5.56529 10.4629 5.47986 10.4157C5.39575 10.3701 5.3224 10.307 5.26474 10.2308C5.20709 10.1545 5.16647 10.0667 5.14563 9.97347C5.09574 9.78507 5.12258 9.58459 5.22029 9.41591L8.48674 3.33172Z" fill="#1E2843"/>
<path d="M3.17154 3.84879C3.12108 3.76387 3.05419 3.68984 2.97477 3.63102C2.89535 3.5722 2.805 3.52977 2.70898 3.50622C2.61613 3.47959 2.51884 3.47205 2.42299 3.48407C2.32714 3.49609 2.23473 3.52741 2.15135 3.57613C2.06756 3.6201 1.99388 3.68105 1.93502 3.75509C1.87616 3.82913 1.83343 3.91462 1.80954 4.0061C1.78673 4.099 1.78293 4.19555 1.79837 4.28995C1.8138 4.38435 1.84815 4.47467 1.89937 4.5555L5.1839 10.1258C5.23187 10.211 5.29634 10.2858 5.37355 10.3458C5.45077 10.4058 5.53918 10.4499 5.63362 10.4754C5.72688 10.5044 5.82506 10.5141 5.92221 10.5041C6.01936 10.4941 6.11347 10.4645 6.19884 10.4171C6.28292 10.3715 6.35625 10.3085 6.4139 10.2322C6.47155 10.1559 6.51219 10.0682 6.53307 9.97494C6.55923 9.88189 6.5659 9.78446 6.55265 9.68872C6.5394 9.59299 6.50652 9.50101 6.45607 9.41854L3.17154 3.84821V3.84879Z" fill="#1E2843"/>
<path d="M1.38638 0.817545C1.336 0.732557 1.26913 0.658476 1.1897 0.599648C1.11027 0.540821 1.01988 0.498433 0.923826 0.474971C0.830977 0.448337 0.733683 0.440801 0.637834 0.452818C0.541984 0.464835 0.449573 0.496156 0.366195 0.544884C0.282404 0.588851 0.208723 0.649803 0.149865 0.72384C0.0910075 0.797878 0.0482693 0.88337 0.0243849 0.97485C0.00157576 1.06775 -0.00222517 1.1643 0.0132099 1.2587C0.028645 1.3531 0.0629986 1.44342 0.114212 1.52425L3.39875 7.09458C3.44671 7.17976 3.51118 7.25454 3.5884 7.31456C3.66561 7.37458 3.75402 7.41863 3.84847 7.44415C3.94173 7.47309 4.0399 7.48284 4.13705 7.47283C4.23419 7.46281 4.3283 7.43324 4.41368 7.38589C4.49779 7.34031 4.57114 7.27726 4.62879 7.20098C4.68645 7.1247 4.72706 7.03697 4.74791 6.94369C4.77356 6.85066 4.77976 6.75335 4.76611 6.65782C4.75246 6.5623 4.71926 6.47061 4.66858 6.38846L1.3858 0.818128L1.38638 0.817545Z" fill="#1E2843"/>
</svg>
