<svg width="51" height="50" viewBox="0 0 51 50" fill="none" xmlns="http://www.w3.org/2000/svg">
<path d="M23.7365 32.1348C23.7365 41.216 12.3683 48.9999 12.3683 48.9999C12.3683 48.9999 1 41.216 1 32.1348C1 29.0382 2.19772 26.0684 4.32969 23.8788C6.46165 21.6891 9.35321 20.459 12.3683 20.459C15.3833 20.459 18.2749 21.6891 20.4068 23.8788C22.5388 26.0684 23.7365 29.0382 23.7365 32.1348Z" stroke="#8F95A1" stroke-width="2" stroke-linecap="round" stroke-linejoin="round"/>
<path d="M12.3675 36.0261C14.4604 36.0261 16.157 34.2836 16.157 32.1341C16.157 29.9847 14.4604 28.2422 12.3675 28.2422C10.2747 28.2422 8.57812 29.9847 8.57812 32.1341C8.57812 34.2836 10.2747 36.0261 12.3675 36.0261Z" stroke="#8F95A1" stroke-width="2" stroke-linecap="round" stroke-linejoin="round"/>
<path d="M49.0014 13.9734C49.0014 20.0275 41.4226 25.2168 41.4226 25.2168C41.4226 25.2168 33.8438 20.0275 33.8438 13.9734C33.8438 11.9089 34.6422 9.92907 36.0635 8.4693C37.4848 7.00954 39.4126 6.18945 41.4226 6.18945C43.4326 6.18945 45.3603 7.00954 46.7816 8.4693C48.2029 9.92907 49.0014 11.9089 49.0014 13.9734Z" stroke="#8F95A1" stroke-width="2" stroke-linecap="round" stroke-linejoin="round"/>
<path d="M41.4208 16.5662C42.816 16.5662 43.9471 15.4046 43.9471 13.9716C43.9471 12.5386 42.816 11.377 41.4208 11.377C40.0256 11.377 38.8945 12.5386 38.8945 13.9716C38.8945 15.4046 40.0256 16.5662 41.4208 16.5662Z" stroke="#8F95A1" stroke-width="2" stroke-linecap="round" stroke-linejoin="round"/>
<path d="M23.7354 6.83792C23.7354 11.3785 18.0513 15.2705 18.0513 15.2705C18.0513 15.2705 12.3672 11.3785 12.3672 6.83792C12.3672 5.28961 12.966 3.80471 14.032 2.70989C15.098 1.61507 16.5438 1 18.0513 1C19.5588 1 21.0046 1.61507 22.0706 2.70989C23.1366 3.80471 23.7354 5.28961 23.7354 6.83792Z" stroke="#8F95A1" stroke-width="2" stroke-linecap="round" stroke-linejoin="round"/>
<path d="M18.051 8.78453C19.0974 8.78453 19.9457 7.91329 19.9457 6.83855C19.9457 5.76382 19.0974 4.89258 18.051 4.89258C17.0045 4.89258 16.1562 5.76382 16.1562 6.83855C16.1562 7.91329 17.0045 8.78453 18.051 8.78453Z" stroke="#8F95A1" stroke-width="2" stroke-linecap="round" stroke-linejoin="round"/>
<line x1="1" y1="-1" x2="23.5224" y2="-1" transform="matrix(0.772644 -0.63484 0.614504 0.788914 22.4727 46.4062)" stroke="#8F95A1" stroke-width="2" stroke-linecap="round"/>
<line x1="1" y1="-1" x2="11.0079" y2="-1" transform="matrix(0.841541 0.540194 -0.519847 0.854259 22.4727 17.8652)" stroke="#8F95A1" stroke-width="2" stroke-linecap="round"/>
</svg>
