<svg width="123" height="30" viewBox="0 0 123 30" fill="none" xmlns="http://www.w3.org/2000/svg">
<path fill-rule="evenodd" clip-rule="evenodd" d="M95.2107 13.2146C94.8422 15.6349 92.9937 15.6349 91.2059 15.6349H90.1886L90.9022 11.1161C90.9452 10.8431 91.1807 10.6419 91.4574 10.6419H91.9237C93.1404 10.6419 94.2901 10.6419 94.8828 11.3352C95.2374 11.7501 95.3446 12.3649 95.2107 13.2146ZM94.4325 6.90039H87.6898C87.2289 6.90039 86.8365 7.23584 86.7646 7.6913L84.0383 24.9801C83.9843 25.321 84.248 25.6295 84.5934 25.6295H88.0528C88.3755 25.6295 88.6504 25.3946 88.7004 25.0758L89.4737 20.1746C89.5455 19.7192 89.938 19.3837 90.3989 19.3837H92.5325C96.9737 19.3837 99.5368 17.2343 100.207 12.9746C100.508 11.1116 100.219 9.64766 99.3465 8.62282C98.3877 7.49615 96.6883 6.90039 94.4325 6.90039Z" fill="#2790C3"/>
<path fill-rule="evenodd" clip-rule="evenodd" d="M47.1208 13.2146C46.7523 15.6349 44.9038 15.6349 43.1162 15.6349H42.099L42.8123 11.1161C42.8556 10.8431 43.0911 10.6419 43.3674 10.6419H43.8338C45.0508 10.6419 46.2005 10.6419 46.7929 11.3352C47.1477 11.7501 47.255 12.3649 47.1208 13.2146ZM46.3429 6.90039H39.6002C39.1393 6.90039 38.7468 7.23584 38.675 7.6913L35.9484 24.9801C35.8947 25.321 36.1584 25.6295 36.5035 25.6295H39.7229C40.1838 25.6295 40.5765 25.294 40.6484 24.8389L41.3841 20.1746C41.4556 19.7192 41.8484 19.3837 42.3093 19.3837H44.4429C48.8838 19.3837 51.4471 17.2343 52.1171 12.9746C52.4187 11.1116 52.1293 9.64766 51.2568 8.62282C50.2978 7.49615 48.5984 6.90039 46.3429 6.90039Z" fill="#27346A"/>
<path fill-rule="evenodd" clip-rule="evenodd" d="M61.9957 19.4219C61.6839 21.2667 60.2194 22.5052 58.3515 22.5052C57.4151 22.5052 56.6654 22.204 56.1836 21.6337C55.706 21.0682 55.5263 20.2628 55.6776 19.3658C55.9685 17.5376 57.4563 16.2591 59.2957 16.2591C60.2127 16.2591 60.957 16.5634 61.4485 17.1388C61.943 17.7185 62.1373 18.5294 61.9957 19.4219ZM66.4951 13.1379H63.2666C62.99 13.1379 62.7545 13.3388 62.7115 13.6125L62.5694 14.5152L62.3436 14.1879C61.6445 13.1731 60.0863 12.834 58.5303 12.834C54.9633 12.834 51.9163 15.537 51.3233 19.3282C51.0145 21.2194 51.4527 23.0267 52.5251 24.2882C53.5103 25.4473 54.9164 25.9297 56.5915 25.9297C59.4667 25.9297 61.0612 24.0828 61.0612 24.0828L60.917 24.98C60.863 25.3213 61.1266 25.63 61.4721 25.63H64.3797C64.8406 25.63 65.233 25.2949 65.3048 24.8394L67.0503 13.7873C67.1042 13.4461 66.8406 13.1379 66.4951 13.1379Z" fill="#27346A"/>
<path fill-rule="evenodd" clip-rule="evenodd" d="M110.085 19.4219C109.774 21.2667 108.309 22.5052 106.442 22.5052C105.505 22.5052 104.755 22.204 104.273 21.6337C103.796 21.0682 103.616 20.2628 103.768 19.3658C104.058 17.5376 105.546 16.2591 107.386 16.2591C108.302 16.2591 109.047 16.5634 109.538 17.1388C110.033 17.7185 110.227 18.5294 110.085 19.4219ZM114.585 13.1379H111.356C111.08 13.1379 110.844 13.3388 110.801 13.6125L110.659 14.5152L110.434 14.1879C109.734 13.1731 108.176 12.834 106.62 12.834C103.053 12.834 100.006 15.537 99.413 19.3282C99.1045 21.2194 99.5427 23.0267 100.615 24.2882C101.6 25.4473 103.006 25.9297 104.681 25.9297C107.556 25.9297 109.151 24.0828 109.151 24.0828L109.007 24.98C108.953 25.3213 109.216 25.63 109.562 25.63H112.469C112.93 25.63 113.323 25.2949 113.395 24.8394L115.14 13.7873C115.194 13.4461 114.93 13.1379 114.585 13.1379Z" fill="#2790C3"/>
<mask id="mask0" mask-type="alpha" maskUnits="userSpaceOnUse" x="0" y="0" width="123" height="30">
<path d="M0.0195312 29.9993H122.624V0.248047H0.0195312V29.9993Z" fill="white"/>
</mask>
<g mask="url(#mask0)">
<path fill-rule="evenodd" clip-rule="evenodd" d="M83.6919 13.1387H80.4468C80.1365 13.1387 79.8462 13.2926 79.6719 13.5493L75.1956 20.1423L73.2983 13.8069C73.1798 13.4105 72.815 13.1387 72.401 13.1387H69.211C68.8259 13.1387 68.5547 13.5175 68.6789 13.882L72.2522 24.3705L68.8913 29.1129C68.6274 29.485 68.8938 29.9999 69.3498 29.9999H72.5919C72.8992 29.9999 73.1868 29.8493 73.3619 29.5965L84.1541 14.0211C84.4122 13.6484 84.1456 13.1387 83.6919 13.1387Z" fill="#27346A"/>
<path fill-rule="evenodd" clip-rule="evenodd" d="M118.391 7.37524L115.624 24.9801C115.571 25.3213 115.834 25.6295 116.179 25.6295H118.963C119.424 25.6295 119.816 25.294 119.888 24.8389L122.616 7.55009C122.67 7.20888 122.407 6.90039 122.061 6.90039H118.947C118.67 6.90039 118.434 7.10191 118.391 7.37524Z" fill="#2790C3"/>
<path fill-rule="evenodd" clip-rule="evenodd" d="M12.7732 28.7736L13.6796 23.0263L13.738 22.7078C13.7817 22.4309 13.9235 22.1775 14.1371 21.9951C14.3508 21.8127 14.6232 21.7121 14.9041 21.7121H15.6238C16.8235 21.7121 17.9256 21.5839 18.8999 21.3312C19.9392 21.0618 20.8638 20.6421 21.6474 20.0848C22.4783 19.4939 23.1762 18.73 23.722 17.8148C24.2977 16.8494 24.7205 15.6869 24.9786 14.3603C25.2068 13.1888 25.2495 12.14 25.1062 11.2427C24.9544 10.2948 24.5892 9.48603 24.0211 8.83815C23.6765 8.44573 23.2356 8.10573 22.7108 7.82754L22.6983 7.82088L22.698 7.80573C22.8814 6.63633 22.8744 5.66088 22.6771 4.82118C22.4789 3.97967 22.0777 3.22239 21.4496 2.50664C20.148 1.02361 17.7808 0.271484 14.4138 0.271484H5.16682C4.85773 0.271484 4.55773 0.38209 4.32258 0.582999C4.08743 0.783909 3.93167 1.063 3.88319 1.36845L0.0328831 25.7845C-0.0022684 26.0072 0.061671 26.2336 0.208338 26.4045C0.355004 26.5763 0.568338 26.6748 0.793792 26.6748H6.53046L6.52531 26.7021L6.13137 29.2003C6.10106 29.3945 6.15682 29.5915 6.2844 29.7406C6.41197 29.89 6.59773 29.976 6.7941 29.976H11.6056C11.8756 29.976 12.1371 29.8794 12.3423 29.7039C12.5474 29.5285 12.6838 29.2851 12.7259 29.0188L12.7732 28.7736Z" fill="#27346A"/>
<path fill-rule="evenodd" clip-rule="evenodd" d="M9.47686 7.83744C9.53777 7.45047 9.78595 7.1338 10.1202 6.9735C10.2723 6.90077 10.442 6.86017 10.6199 6.86017H17.8681C18.7269 6.86017 19.5275 6.91653 20.2596 7.03441C20.4687 7.06805 20.672 7.10683 20.8699 7.15077C21.0678 7.19471 21.2596 7.2435 21.4453 7.29805C21.5384 7.32502 21.6296 7.3535 21.7196 7.3835C22.079 7.5029 22.4135 7.6435 22.7214 7.80653C23.0844 5.49229 22.719 3.91744 21.4672 2.49108C20.089 0.920774 17.5993 0.248047 14.4138 0.248047H5.16686C4.51595 0.248047 3.96171 0.721683 3.86019 1.36471L0.00988811 25.7808C-0.0661725 26.2626 0.306252 26.698 0.793828 26.698H6.50231L9.47686 7.83744Z" fill="#27346A"/>
</g>
<path fill-rule="evenodd" clip-rule="evenodd" d="M22.7232 7.80664C22.6956 7.98331 22.665 8.163 22.6287 8.34816C21.4096 14.6091 17.2374 16.7736 11.909 16.7736H9.19563C8.54472 16.7736 7.99502 17.2476 7.8935 17.8906L6.11017 29.1969C6.04381 29.6182 6.36957 29.9994 6.79593 29.9994H11.6077C12.1771 29.9994 12.662 29.5851 12.7508 29.0224L12.7981 28.7779L13.7044 23.03L13.7629 22.7124C13.8517 22.1497 14.3365 21.7354 14.9059 21.7354H15.6256C20.2871 21.7354 23.9371 19.8415 25.0038 14.3645C25.4493 12.076 25.219 10.1657 24.0405 8.8227C23.6841 8.41664 23.2405 8.08058 22.7232 7.80664Z" fill="#2790C3"/>
<path fill-rule="evenodd" clip-rule="evenodd" d="M21.4482 7.29725C21.2624 7.24271 21.0706 7.19392 20.8727 7.14998C20.6748 7.10604 20.4715 7.06725 20.2624 7.03362C19.5303 6.91574 18.7297 6.85938 17.8709 6.85938H10.6227C10.4448 6.85938 10.2751 6.89998 10.123 6.97271C9.78877 7.13301 9.54059 7.44968 9.47968 7.83665L7.93908 17.6045L7.89453 17.8897C7.99605 17.2466 8.54574 16.7727 9.19665 16.7727H11.91C17.2385 16.7727 21.4106 14.6082 22.6297 8.34725C22.666 8.1621 22.6967 7.98241 22.7242 7.80574C22.4163 7.64271 22.0818 7.5021 21.7224 7.38271C21.6324 7.35271 21.5412 7.32422 21.4482 7.29725Z" fill="#1F264F"/>
</svg>
