<svg width="40" height="40" viewBox="0 0 40 40" fill="none" xmlns="http://www.w3.org/2000/svg">
<path d="M2.91057 31.8245H9.75857L12.3186 21.5845C12.4306 21.1205 12.8466 20.8005 13.3266 20.8005H19.7266C22.4334 20.8894 25.0845 20.0178 27.2104 18.3399C29.3363 16.6619 30.8001 14.286 31.3426 11.6325C32.5586 6.16055 29.1026 2.64055 24.2066 2.64055H9.75857L2.91057 31.8245ZM14.1426 22.8805L11.5826 33.1205C11.5256 33.3447 11.3956 33.5435 11.2131 33.6855C11.0305 33.8275 10.8058 33.9045 10.5746 33.9045H1.59857C1.44192 33.904 1.28743 33.868 1.14663 33.7993C1.00583 33.7306 0.882357 33.6311 0.785438 33.508C0.688519 33.3849 0.620655 33.2415 0.586912 33.0886C0.55317 32.9356 0.554421 32.777 0.590573 32.6245L7.90257 1.36055C8.01457 0.880547 8.43057 0.560547 8.91057 0.560547H24.2066C30.3506 0.560547 34.8946 5.20055 33.3746 12.0805C32.7301 15.1938 31.0115 17.9814 28.5195 19.9557C26.0275 21.93 22.9207 22.9653 19.7426 22.8805H14.1426Z" fill="black"/>
<path d="M21.9192 15.4241C20.9272 16.0641 19.8072 16.4001 18.6872 16.4001H14.4792C14.3226 16.3995 14.1681 16.3635 14.0273 16.2948C13.8865 16.2262 13.763 16.1266 13.6661 16.0035C13.5692 15.8804 13.5013 15.7371 13.4676 15.5841C13.4338 15.4311 13.4351 15.2725 13.4712 15.1201L15.2472 7.48808L15.3912 6.88008C15.5032 6.40008 15.9192 6.08008 16.3992 6.08008H20.7992C21.7592 6.08008 22.6392 6.36808 23.3592 6.88008C24.0544 7.39884 24.5699 8.1219 24.8339 8.94813C25.0978 9.77435 25.0969 10.6624 24.8312 11.4881C24.4245 13.1315 23.3832 14.5468 21.9352 15.4241H21.9192ZM18.6872 14.3201C19.3912 14.3201 20.1272 14.0961 20.8152 13.6641C21.3107 13.3679 21.7426 12.9764 22.0859 12.5123C22.4292 12.0482 22.6771 11.5206 22.8152 10.9601C23.1032 9.93608 22.8152 9.05608 22.1432 8.56008C21.7486 8.28837 21.2782 8.14837 20.7992 8.16008H17.2312L15.7912 14.3201H18.6872ZM17.8712 26.1761C17.9832 25.6961 18.3992 25.3761 18.8792 25.3761H20.0952C21.8979 25.3775 23.7006 25.3775 25.5032 25.3761C31.2152 25.2801 35.6472 21.4401 36.8632 15.4881C37.3432 13.1841 37.1832 11.1201 36.2872 9.44008C36.181 9.19856 36.1706 8.92571 36.2581 8.67679C36.3455 8.42787 36.5243 8.22149 36.7582 8.09945C36.9921 7.97741 37.2637 7.94884 37.5179 8.01951C37.7721 8.09018 37.9899 8.25482 38.1272 8.48008C39.2472 10.6241 39.4552 13.1681 38.8952 15.9041C37.4872 22.8001 32.2552 27.3281 25.5512 27.4401C23.6046 27.4562 21.6579 27.4562 19.7112 27.4401L17.1032 38.5441C16.9912 39.0241 16.5752 39.3441 16.0952 39.3441H7.11923C6.96459 39.3448 6.81173 39.3111 6.67178 39.2453C6.53183 39.1795 6.40831 39.0833 6.31022 38.9638C6.21213 38.8442 6.14193 38.7043 6.10474 38.5542C6.06755 38.4041 6.0643 38.2476 6.09523 38.0961L6.73523 35.1041C6.75335 34.9621 6.80058 34.8254 6.87397 34.7025C6.94737 34.5796 7.04534 34.4731 7.16176 34.3899C7.27818 34.3066 7.41054 34.2482 7.55056 34.2184C7.69057 34.1887 7.83522 34.1881 7.97546 34.2168C8.1157 34.2455 8.2485 34.3029 8.36555 34.3853C8.48259 34.4677 8.58137 34.5734 8.6557 34.6957C8.73002 34.818 8.77829 34.9544 8.79748 35.0962C8.81667 35.2381 8.80638 35.3824 8.76723 35.5201L8.39923 37.2641H15.2792L17.8712 26.1761Z" fill="black"/>
</svg>
