<svg width="20" height="20" viewBox="0 0 20 20" fill="none" xmlns="http://www.w3.org/2000/svg">
<mask id="path-1-inside-1" fill="white">
<path fill-rule="evenodd" clip-rule="evenodd" d="M2 6C2 5.44771 2.44772 5 3 5H17C17.5523 5 18 5.44772 18 6V8.57567C18 8.82442 17.7488 9 17.5 9C16.6716 9 16 9.67157 16 10.5C16 11.3284 16.6716 12 17.5 12C17.7488 12 18 12.1756 18 12.4243V15C18 15.5523 17.5523 16 17 16H3C2.44772 16 2 15.5523 2 15V12.4243C2 12.1756 2.25125 12 2.5 12C3.32843 12 4 11.3284 4 10.5C4 9.67157 3.32843 9 2.5 9C2.25125 9 2 8.82442 2 8.57567V6Z"/>
</mask>
<path d="M3 4C1.89543 4 1 4.89543 1 6H3V6V4ZM17 4H3V6H17V4ZM19 6C19 4.89543 18.1046 4 17 4V6H19ZM19 8.57567V6H17V8.57567H19ZM17 10.5C17 10.2239 17.2239 10 17.5 10V8C16.1193 8 15 9.11929 15 10.5H17ZM17.5 11C17.2239 11 17 10.7761 17 10.5H15C15 11.8807 16.1193 13 17.5 13V11ZM19 15V12.4243H17V15H19ZM17 17C18.1046 17 19 16.1046 19 15H17V17ZM3 17H17V15H3V17ZM1 15C1 16.1046 1.89543 17 3 17V15H1ZM1 12.4243V15H3V12.4243H1ZM3 10.5C3 10.7761 2.77614 11 2.5 11V13C3.88071 13 5 11.8807 5 10.5H3ZM2.5 10C2.77614 10 3 10.2239 3 10.5H5C5 9.11929 3.88071 8 2.5 8V10ZM1 6V8.57567H3V6H1ZM2.5 8C2.59901 8 2.6948 8.03108 2.78072 8.0997C2.87431 8.17443 3 8.33711 3 8.57567H1C1 9.06298 1.25131 9.43782 1.53271 9.66254C1.80645 9.88113 2.15224 10 2.5 10V8ZM3 12.4243C3 12.6629 2.87431 12.8256 2.78072 12.9003C2.6948 12.9689 2.59901 13 2.5 13V11C2.15224 11 1.80645 11.1189 1.53271 11.3375C1.25131 11.5622 1 11.937 1 12.4243H3ZM17.5 13C17.401 13 17.3052 12.9689 17.2193 12.9003C17.1257 12.8256 17 12.6629 17 12.4243H19C19 11.937 18.7487 11.5622 18.4673 11.3375C18.1936 11.1189 17.8478 11 17.5 11V13ZM17 8.57567C17 8.33711 17.1257 8.17443 17.2193 8.0997C17.3052 8.03108 17.401 8 17.5 8V10C17.8478 10 18.1936 9.88113 18.4673 9.66254C18.7487 9.43782 19 9.06298 19 8.57567H17Z" fill="#1E2843" mask="url(#path-1-inside-1)"/>
<line x1="7.5" y1="5" x2="7.5" y2="16" stroke="#1E2843" stroke-dasharray="2 1"/>
</svg>
