<svg width="31" height="19" viewBox="0 0 31 19" fill="none" xmlns="http://www.w3.org/2000/svg">
<path d="M0.999999 3.32023L1 14.9202C1 16.2015 2.29837 17.2402 3.9 17.2402L27.1 17.2402C28.7016 17.2402 30 16.2015 30 14.9202L30 3.32023C30 2.03893 28.7016 1.00023 27.1 1.00023L3.9 1.00023C2.29837 1.00023 0.999999 2.03893 0.999999 3.32023Z" stroke="#FF5134" stroke-width="2" stroke-linecap="round" stroke-linejoin="round"/>
<path d="M24.7798 2C24.7798 4.66761 26 6 29 6" stroke="#FF5134" stroke-width="2"/>
<path d="M6.22016 2C6.22016 4.66761 5 6 2 6" stroke="#FF5134" stroke-width="2"/>
<path d="M24.5 16.5C24.5 13.5 26.7577 12 29 12" stroke="#FF5134" stroke-width="2"/>
<path d="M6.5 16.5C6.5 13.5 4.24228 12 2 12" stroke="#FF5134" stroke-width="2"/>
<path d="M15.1097 5.74023H16.5097V12.7402H14.9097V7.43023L13.6697 7.77023L13.2797 6.40023L15.1097 5.74023Z" fill="#FF5134"/>
</svg>
