<svg width="25" height="6" viewBox="0 0 25 6" fill="none" xmlns="http://www.w3.org/2000/svg">
<g clip-path="url(#clip0)">
<path d="M3 6.00078C4.65685 6.00078 6 4.65746 6 3.00039C6 1.34332 4.65685 0 3 0C1.34315 0 0 1.34332 0 3.00039C0 4.65746 1.34315 6.00078 3 6.00078Z" fill="#1E2843"/>
<path d="M12 6.00078C13.6569 6.00078 15 4.65746 15 3.00039C15 1.34332 13.6569 0 12 0C10.3431 0 9 1.34332 9 3.00039C9 4.65746 10.3431 6.00078 12 6.00078Z" fill="#1E2843"/>
<path d="M22 6.00078C23.6569 6.00078 25 4.65746 25 3.00039C25 1.34332 23.6569 0 22 0C20.3431 0 19 1.34332 19 3.00039C19 4.65746 20.3431 6.00078 22 6.00078Z" fill="#1E2843"/>
</g>
<defs>
<clipPath id="clip0">
<rect width="25" height="6" fill="white"/>
</clipPath>
</defs>
</svg>
