<svg width="37" height="37" viewBox="0 0 37 37" fill="none" xmlns="http://www.w3.org/2000/svg">
<path d="M16.9609 6.16797H6.16927C5.35152 6.16797 4.56726 6.49282 3.98902 7.07106C3.41079 7.64929 3.08594 8.43355 3.08594 9.2513V30.8346C3.08594 31.6524 3.41079 32.4366 3.98902 33.0149C4.56726 33.5931 5.35152 33.918 6.16927 33.918H27.7526C28.5704 33.918 29.3546 33.5931 29.9328 33.0149C30.5111 32.4366 30.8359 31.6524 30.8359 30.8346V20.043" stroke="#1E2843" stroke-width="2" stroke-linecap="round" stroke-linejoin="round"/>
<path d="M28.5234 3.85435C29.1368 3.24104 29.9686 2.89648 30.8359 2.89648C31.7033 2.89648 32.5351 3.24104 33.1484 3.85435C33.7618 4.46767 34.1063 5.2995 34.1063 6.16685C34.1063 7.03421 33.7618 7.86604 33.1484 8.47935L18.5026 23.1252L12.3359 24.6669L13.8776 18.5002L28.5234 3.85435Z" stroke="#1E2843" stroke-width="2" stroke-linecap="round" stroke-linejoin="round"/>
</svg>
