<svg width="38" height="41" viewBox="0 0 38 41" fill="none" xmlns="http://www.w3.org/2000/svg">
<path d="M33.25 17.084C33.25 29.0423 19 39.2923 19 39.2923C19 39.2923 4.75 29.0423 4.75 17.084C4.75 13.0063 6.25133 9.09559 8.92373 6.21222C11.5961 3.32885 15.2207 1.70898 19 1.70898C22.7793 1.70898 26.4039 3.32885 29.0763 6.21222C31.7487 9.09559 33.25 13.0063 33.25 17.084Z" fill="#FF5134" stroke="#FF5134" stroke-width="2" stroke-linecap="round" stroke-linejoin="round"/>
<path d="M19 22C21.7614 22 24 19.7614 24 17C24 14.2386 21.7614 12 19 12C16.2386 12 14 14.2386 14 17C14 19.7614 16.2386 22 19 22Z" fill="#F2F1F0"/>
</svg>
