<svg width="38" height="39" viewBox="0 0 38 39" fill="none" xmlns="http://www.w3.org/2000/svg">
<mask id="path-1-inside-1" fill="white">
<path d="M26.7629 8.83161C24.5196 7.38354 21.8974 6.63319 19.2276 6.67546C16.5579 6.71772 13.9607 7.5507 11.7644 9.06906C9.56809 10.5874 7.87136 12.723 6.88875 15.2056C5.90615 17.6883 5.6818 20.4066 6.24409 23.0167C6.80638 25.6269 8.13005 28.0117 10.0477 29.8696C11.9654 31.7275 14.3909 32.975 17.0175 33.4544C19.6442 33.9338 22.354 33.6235 24.8044 32.5628C27.2547 31.5021 29.3354 29.7386 30.7835 27.4953L29.8365 26.884C28.5093 28.94 26.6023 30.5562 24.3566 31.5283C22.1108 32.5005 19.6273 32.7848 17.2199 32.3455C14.8126 31.9061 12.5896 30.7628 10.8321 29.06C9.07452 27.3573 7.86137 25.1716 7.34603 22.7794C6.83069 20.3871 7.0363 17.8958 7.93687 15.6204C8.83743 13.3451 10.3925 11.3879 12.4054 9.99628C14.4183 8.6047 16.7987 7.84127 19.2455 7.80254C21.6923 7.7638 24.0956 8.45149 26.1516 9.77865L26.7629 8.83161Z"/>
</mask>
<path d="M26.7629 8.83161C24.5196 7.38354 21.8974 6.63319 19.2276 6.67546C16.5579 6.71772 13.9607 7.5507 11.7644 9.06906C9.56809 10.5874 7.87136 12.723 6.88875 15.2056C5.90615 17.6883 5.6818 20.4066 6.24409 23.0167C6.80638 25.6269 8.13005 28.0117 10.0477 29.8696C11.9654 31.7275 14.3909 32.975 17.0175 33.4544C19.6442 33.9338 22.354 33.6235 24.8044 32.5628C27.2547 31.5021 29.3354 29.7386 30.7835 27.4953L29.8365 26.884C28.5093 28.94 26.6023 30.5562 24.3566 31.5283C22.1108 32.5005 19.6273 32.7848 17.2199 32.3455C14.8126 31.9061 12.5896 30.7628 10.8321 29.06C9.07452 27.3573 7.86137 25.1716 7.34603 22.7794C6.83069 20.3871 7.0363 17.8958 7.93687 15.6204C8.83743 13.3451 10.3925 11.3879 12.4054 9.99628C14.4183 8.6047 16.7987 7.84127 19.2455 7.80254C21.6923 7.7638 24.0956 8.45149 26.1516 9.77865L26.7629 8.83161Z" stroke="white" stroke-width="2" mask="url(#path-1-inside-1)"/>
<path d="M21.6524 1L26.4024 9.22724L17.7422 14.2272" stroke="white"/>
</svg>
