<svg width="32" height="32" viewBox="0 0 32 32" fill="none" xmlns="http://www.w3.org/2000/svg">
<path d="M30.6654 25.3333C30.6654 26.0406 30.3844 26.7189 29.8843 27.219C29.3842 27.719 28.7059 28 27.9987 28H3.9987C3.29145 28 2.61318 27.719 2.11308 27.219C1.61298 26.7189 1.33203 26.0406 1.33203 25.3333V10.6667C1.33203 9.95942 1.61298 9.28115 2.11308 8.78105C2.61318 8.28095 3.29145 8 3.9987 8H9.33203L11.9987 4H19.9987L22.6654 8H27.9987C28.7059 8 29.3842 8.28095 29.8843 8.78105C30.3844 9.28115 30.6654 9.95942 30.6654 10.6667V25.3333Z" stroke="#1E2843" stroke-width="2" stroke-linecap="round" stroke-linejoin="round"/>
<path d="M16.0013 22.6667C18.9468 22.6667 21.3346 20.2789 21.3346 17.3333C21.3346 14.3878 18.9468 12 16.0013 12C13.0558 12 10.668 14.3878 10.668 17.3333C10.668 20.2789 13.0558 22.6667 16.0013 22.6667Z" stroke="#1E2843" stroke-width="2" stroke-linecap="round" stroke-linejoin="round"/>
</svg>
