<svg width="64" height="64" viewBox="0 0 64 64" fill="none" xmlns="http://www.w3.org/2000/svg">
<path d="M50.6667 8H13.3333C10.3878 8 8 10.3878 8 13.3333V50.6667C8 53.6122 10.3878 56 13.3333 56H50.6667C53.6122 56 56 53.6122 56 50.6667V13.3333C56 10.3878 53.6122 8 50.6667 8Z" stroke="#1E2843" stroke-width="2" stroke-linecap="round" stroke-linejoin="round"/>
<path d="M22.666 26.666C24.8752 26.666 26.666 24.8752 26.666 22.666C26.666 20.4569 24.8752 18.666 22.666 18.666C20.4569 18.666 18.666 20.4569 18.666 22.666C18.666 24.8752 20.4569 26.666 22.666 26.666Z" stroke="#1E2843" stroke-width="2" stroke-linecap="round" stroke-linejoin="round"/>
<path d="M56.0007 39.9993L42.6673 26.666L13.334 55.9993" stroke="#1E2843" stroke-width="2" stroke-linecap="round" stroke-linejoin="round"/>
</svg>
