<svg width="18" height="18" viewBox="0 0 18 18" fill="none" xmlns="http://www.w3.org/2000/svg">
<path d="M8.99922 17.5492C7.87642 17.5492 6.76461 17.3281 5.72728 16.8984C4.68994 16.4687 3.7474 15.8389 2.95346 15.045C2.15952 14.251 1.52973 13.3085 1.10005 12.2712C0.670371 11.2338 0.449219 10.122 0.449219 8.99922C0.449219 7.87642 0.670371 6.76461 1.10005 5.72728C1.52973 4.68994 2.15952 3.7474 2.95346 2.95346C3.7474 2.15951 4.68994 1.52973 5.72728 1.10005C6.76461 0.670371 7.87642 0.449219 8.99922 0.449219C11.2668 0.449219 13.4415 1.35002 15.045 2.95346C16.6484 4.55689 17.5492 6.73162 17.5492 8.99922C17.5492 11.2668 16.6484 13.4415 15.045 15.045C13.4415 16.6484 11.2668 17.5492 8.99922 17.5492ZM8.99922 16.6492C10.0038 16.6492 10.9986 16.4513 11.9267 16.0669C12.8549 15.6824 13.6982 15.119 14.4086 14.4086C15.119 13.6982 15.6824 12.8549 16.0669 11.9267C16.4513 10.9986 16.6492 10.0038 16.6492 8.99922C16.6492 7.99461 16.4513 6.99983 16.0669 6.07169C15.6824 5.14355 15.119 4.30022 14.4086 3.58985C13.6982 2.87948 12.8549 2.31599 11.9267 1.93154C10.9986 1.54709 10.0038 1.34922 8.99922 1.34922C6.97031 1.34922 5.02451 2.1552 3.58985 3.58985C2.1552 5.02451 1.34922 6.97031 1.34922 8.99922C1.34922 11.0281 2.1552 12.9739 3.58985 14.4086C5.02451 15.8432 6.97031 16.6492 8.99922 16.6492Z" fill="#B9B9B9"/>
<path fill-rule="evenodd" clip-rule="evenodd" d="M9.77369 11.1777H8.18969V10.7637C8.18969 10.2507 8.27969 9.83665 8.44169 9.50365C8.61269 9.17965 8.94569 8.81065 9.44969 8.39665C9.95369 7.99165 10.2597 7.72165 10.3497 7.58665C10.5027 7.38865 10.5837 7.17265 10.5837 6.92965C10.5837 6.59665 10.4487 6.29965 10.1787 6.06565C9.90869 5.82265 9.54869 5.70565 9.09869 5.70565C8.64869 5.70565 8.28869 5.83165 7.99169 6.08365C7.69469 6.32665 7.49669 6.71365 7.37969 7.22665L5.80469 7.01965C5.84969 6.28165 6.16469 5.66065 6.74069 5.14765C7.38041 4.61612 8.19589 4.34322 9.02669 4.38265C10.0167 4.38265 10.8087 4.63465 11.3937 5.15665C11.9787 5.67865 12.2757 6.28165 12.2757 6.96565C12.2757 7.35265 12.1677 7.71265 11.9517 8.04565C11.7357 8.39665 11.2767 8.85565 10.5747 9.44065C10.2147 9.74665 9.98069 9.98965 9.89069 10.1787C9.80069 10.3587 9.76469 10.6917 9.77369 11.1687V11.1777ZM8.18969 13.4997V11.7717H9.92669V13.4997H8.18969Z" fill="#B9B9B9"/>
</svg>
